<?xml version="1.0" encoding="utf-8"?>
<!-- Generator: Adobe Illustrator 25.4.1, SVG Export Plug-In . SVG Version: 6.00 Build 0)  -->
<svg version="1.1" id="Layer_1" xmlns="http://www.w3.org/2000/svg" xmlns:xlink="http://www.w3.org/1999/xlink" x="0px" y="0px"
	 viewBox="0 0 800 800" style="enable-background:new 0 0 800 800;" xml:space="preserve">
<style type="text/css">
	.st0{fill:none;stroke:#0BBFB5;stroke-width:33.3333;stroke-linecap:round;stroke-linejoin:round;stroke-miterlimit:66.6667;}
	.st1{fill:#0BBFB5;}
	.st2{fill:none;stroke:#0BBFB5;stroke-width:33.3333;stroke-miterlimit:166.6667;}
</style>
<path class="st0" d="M433.3,450H200C98.7,450,16.7,367.9,16.7,266.7S98.7,83.3,200,83.3h233.3c101.3,0,183.3,82.1,183.3,183.3"/>
<path class="st0" d="M433.3,383.3H200c-64.4,0-116.7-52.2-116.7-116.7S135.6,150,200,150h233.3c64.4,0,116.7,52.2,116.7,116.7"/>
<ellipse class="st1" cx="453.4" cy="253.8" rx="21.6" ry="27"/>
<ellipse class="st1" cx="179.9" cy="253.8" rx="21.6" ry="27"/>
<path class="st0" d="M244.7,269.6c31.3,39.7,88.9,46.6,128.7,15.3c5.7-4.5,10.8-9.6,15.3-15.3"/>
<circle class="st2" cx="633.3" cy="448" r="150"/>
<line class="st0" x1="555.6" y1="577.8" x2="500" y2="677.8"/>
<line class="st0" x1="316.7" y1="16.7" x2="316.7" y2="83.3"/>
<path class="st0" d="M100,666.7h355c31.8-0.6,58.7,23.5,61.6,55.2c1.7,32.2-22.9,59.7-55.1,61.4c-1,0.1-2.1,0.1-3.1,0.1H100
	c-46,0-83.3-37.3-83.3-83.3V533.3c0-46,37.3-83.3,83.3-83.3h166.7"/>
<rect x="133.3" y="516.7" class="st0" width="133.3" height="66.7"/>
<line class="st0" x1="400" y1="666.7" x2="400" y2="783.3"/>
</svg>
