<svg width="181" height="190" viewBox="0 0 181 190" fill="none" xmlns="http://www.w3.org/2000/svg">
<path fill-rule="evenodd" clip-rule="evenodd" d="M143.352 108.141C143.352 96.0726 133.608 86.3203 121.551 86.3203H50.0587C38.0013 86.3203 28.2579 96.0726 28.2579 108.141C28.2579 120.21 38.0013 129.962 50.0587 129.962H121.429C133.486 130.084 143.352 120.21 143.352 108.141Z" fill="#0BBFB5" stroke="#42495B" stroke-width="4.608"/>
<path d="M93.8749 86.7699L93.9535 86.7741L94.0323 86.7737L135.615 86.5827C147.351 87.2389 156.326 97.2393 155.71 109.004C155.092 120.801 144.939 129.928 133.198 129.194L133.106 129.188L133.013 129.188L91.5763 129.386C90.8636 129.331 90.1297 128.981 89.3445 128.06C88.498 127.067 87.7008 125.519 87.0498 123.418C85.7509 119.228 85.2386 113.517 85.5433 107.702C85.848 101.888 86.9545 96.2608 88.6843 92.2293C89.5513 90.2087 90.506 88.7517 91.4517 87.8526C92.3555 86.9934 93.1418 86.7315 93.8749 86.7699Z" fill="white" stroke="#42495B" stroke-width="5.5296"/>
<path fill-rule="evenodd" clip-rule="evenodd" d="M74.0953 98.9387H50.2241C44.987 98.9387 40.8461 103.205 40.8461 108.325C40.8461 110.032 39.5063 111.373 37.8013 111.373C36.0962 111.373 34.7564 110.032 34.7564 108.325C34.7564 99.792 41.6986 92.8435 50.2241 92.8435H74.0953C75.8004 92.8435 77.1401 94.1844 77.1401 95.8911C77.1401 97.5978 75.8004 98.9387 74.0953 98.9387Z" fill="white"/>
<path fill-rule="evenodd" clip-rule="evenodd" d="M79.6763 26.9182C68.6632 20.5598 54.7043 24.1847 48.4434 35.0289L11.3205 99.3276C5.05959 110.172 8.89973 124.073 19.9128 130.431C30.926 136.79 44.8848 133.165 51.1457 122.321L88.2054 58.1315C94.5775 47.3515 90.6894 33.2766 79.6763 26.9182Z" fill="#0BBFB5" stroke="#42495B" stroke-width="4.608"/>
<path d="M34.6499 60.0714L34.6934 60.0044L34.733 59.935L56.124 22.4159C62.8203 12.1823 76.6677 9.32536 87.1801 16.1522C97.7199 22.9968 100.757 37.0349 93.987 47.2296L93.9348 47.3082L93.888 47.3902L72.5788 84.782C72.1477 85.4124 71.4269 85.9018 70.1502 86.1277C68.7803 86.3701 66.9313 86.2669 64.6641 85.7416C60.1416 84.6936 54.6458 82.1302 49.4884 78.7809C44.331 75.4316 39.7538 71.4536 36.957 67.7483C35.5549 65.8908 34.7086 64.2437 34.3728 62.8936C34.0508 61.5989 34.2232 60.7284 34.6499 60.0714Z" fill="white" stroke="#42495B" stroke-width="5.5296"/>
<path fill-rule="evenodd" clip-rule="evenodd" d="M35.0895 84.4036L22.6942 105.873C19.9748 110.583 21.7181 116.555 26.3903 119.253C27.9477 120.152 28.4757 122.063 27.5903 123.597C26.705 125.131 24.7856 125.629 23.2282 124.73C15.4412 120.234 12.7051 110.329 17.132 102.662L29.5274 81.1923C30.4127 79.6588 32.3321 79.1603 33.8895 80.0595C35.4469 80.9587 35.9749 82.8701 35.0895 84.4036Z" fill="white"/>
</svg>
