<svg width="959" height="202" viewBox="0 0 959 202" fill="none" xmlns="http://www.w3.org/2000/svg">
<path fill-rule="evenodd" clip-rule="evenodd" d="M143.352 120.116C143.352 108.048 133.608 98.2954 121.551 98.2954H50.0587C38.0013 98.2954 28.2579 108.048 28.2579 120.116C28.2579 132.185 38.0013 141.937 50.0587 141.937H121.429C133.486 142.059 143.352 132.185 143.352 120.116Z" fill="#0BBFB5" stroke="#42495B" stroke-width="4.608"/>
<path d="M93.8749 98.745L93.9535 98.7492L94.0323 98.7488L135.615 98.5578C147.351 99.214 156.326 109.214 155.71 120.98C155.092 132.776 144.939 141.903 133.198 141.169L133.106 141.163L133.013 141.163L91.5763 141.361C90.8636 141.306 90.1297 140.957 89.3445 140.036C88.498 139.043 87.7008 137.494 87.0498 135.394C85.7509 131.203 85.2386 125.492 85.5433 119.677C85.848 113.863 86.9545 108.236 88.6843 104.204C89.5513 102.184 90.506 100.727 91.4517 99.8277C92.3555 98.9685 93.1418 98.7066 93.8749 98.745Z" fill="white" stroke="#42495B" stroke-width="5.5296"/>
<path fill-rule="evenodd" clip-rule="evenodd" d="M74.0953 110.914H50.2241C44.987 110.914 40.8461 115.18 40.8461 120.3C40.8461 122.007 39.5063 123.348 37.8013 123.348C36.0962 123.348 34.7564 122.007 34.7564 120.3C34.7564 111.767 41.6986 104.819 50.2241 104.819H74.0953C75.8004 104.819 77.1401 106.16 77.1401 107.866C77.1401 109.573 75.8004 110.914 74.0953 110.914Z" fill="white"/>
<path fill-rule="evenodd" clip-rule="evenodd" d="M79.6763 38.8933C68.6632 32.5348 54.7043 36.1598 48.4434 47.004L11.3205 111.303C5.05959 122.147 8.89973 136.048 19.9128 142.407C30.926 148.765 44.8848 145.14 51.1457 134.296L88.2054 70.1066C94.5775 59.3266 90.6894 45.2517 79.6763 38.8933Z" fill="#0BBFB5" stroke="#42495B" stroke-width="4.608"/>
<path d="M34.6499 72.0465L34.6934 71.9795L34.733 71.9101L56.124 34.391C62.8203 24.1574 76.6677 21.3005 87.1801 28.1273C97.7199 34.9719 100.757 49.01 93.987 59.2047L93.9348 59.2833L93.888 59.3653L72.5788 96.7571C72.1477 97.3875 71.4269 97.8769 70.1502 98.1028C68.7803 98.3452 66.9313 98.242 64.6641 97.7167C60.1416 96.6687 54.6458 94.1053 49.4884 90.756C44.331 87.4067 39.7538 83.4287 36.957 79.7234C35.5549 77.8659 34.7086 76.2188 34.3728 74.8687C34.0508 73.574 34.2232 72.7035 34.6499 72.0465Z" fill="white" stroke="#42495B" stroke-width="5.5296"/>
<path fill-rule="evenodd" clip-rule="evenodd" d="M35.0895 96.3787L22.6942 117.848C19.9748 122.558 21.7181 128.53 26.3903 131.228C27.9477 132.127 28.4757 134.039 27.5903 135.572C26.705 137.106 24.7856 137.604 23.2282 136.705C15.4412 132.209 12.7051 122.304 17.132 114.637L29.5274 93.1674C30.4127 91.6339 32.3321 91.1354 33.8895 92.0346C35.4469 92.9338 35.9749 94.8452 35.0895 96.3787Z" fill="white"/>
<path d="M262.995 55.4339C265.471 60.4812 266.709 66.0999 266.709 72.29C266.709 78.4801 265.471 84.0987 262.995 89.146C260.519 94.0981 257.328 98.0502 253.424 101.002C245.52 107.097 237.33 110.145 228.854 110.145H210.998V126.287C210.998 128.477 210.903 130.143 210.712 131.286C210.617 132.334 210.189 133.572 209.427 135C208.093 137.572 204.379 138.857 198.285 138.857C191.618 138.857 187.714 137.095 186.571 133.572C186 131.953 185.714 129.477 185.714 126.144V46.863C185.714 44.6727 185.762 43.0538 185.857 42.0062C186.047 40.8634 186.523 39.5778 187.285 38.1493C188.618 35.578 192.333 34.2924 198.427 34.2924H228.997C237.377 34.2924 245.52 37.3398 253.424 43.4347C257.328 46.3869 260.519 50.3866 262.995 55.4339ZM228.997 84.8606C231.854 84.8606 234.663 83.8131 237.425 81.7179C240.187 79.6228 241.567 76.4802 241.567 72.29C241.567 68.0998 240.187 64.9571 237.425 62.862C234.663 60.6717 231.806 59.5765 228.854 59.5765H210.998V84.8606H228.997ZM273.18 76.2897C273.18 74.0994 273.228 72.4804 273.323 71.4329C273.514 70.2901 273.942 69.0045 274.609 67.576C275.942 65.1 279.656 63.8619 285.751 63.8619C290.322 63.8619 293.56 64.6714 295.465 66.2904C297.084 67.6236 297.941 69.6711 298.036 72.4328C298.131 73.3851 298.179 74.766 298.179 76.5754V126.572C298.179 128.763 298.084 130.429 297.893 131.572C297.798 132.619 297.369 133.857 296.608 135.286C295.369 137.762 291.703 139 285.608 139C279.609 139 275.942 137.714 274.609 135.143C273.942 133.715 273.514 132.477 273.323 131.429C273.228 130.382 273.18 128.715 273.18 126.429V76.2897ZM282.18 56.7195C282.18 56.7195 280.751 57.0529 277.894 57.7195C275.037 57.7195 272.704 54.9101 270.895 49.2914C270.133 47.0059 269.752 45.0536 269.752 43.4347C269.752 41.8157 270.038 40.5777 270.609 39.7206C271.561 38.4826 273.323 37.4827 275.895 36.7208L299.464 29.4356C301.94 28.7689 303.369 28.4356 303.75 28.4356C306.607 28.4356 308.892 31.245 310.607 36.8637C311.368 39.1492 311.749 41.1015 311.749 42.7204C311.749 44.2441 311.464 45.4345 310.892 46.2916C309.94 47.5297 308.178 48.5296 305.607 49.2914L282.18 56.7195ZM309.59 40.8634C309.59 38.6731 309.638 37.0541 309.733 36.0066C309.923 34.8638 310.352 33.5782 311.018 32.1497C312.352 29.5784 316.066 28.2928 322.161 28.2928C327.97 28.2928 331.589 29.5784 333.017 32.1497C333.779 33.5782 334.207 34.8638 334.303 36.0066C334.493 37.1494 334.588 38.8159 334.588 41.0063V107.145C334.588 110.573 334.874 112.764 335.445 113.716C336.017 114.573 337.255 115.002 339.159 115.002C341.159 115.002 342.493 115.097 343.159 115.287C343.826 115.382 344.635 115.763 345.588 116.43C347.492 117.668 348.445 121.049 348.445 126.572C348.445 132.572 347.492 136.238 345.588 137.572C343.112 139.286 337.207 139.571 327.874 138.429C320.542 137.476 315.78 135.048 313.59 131.143C310.923 126.477 309.59 119.049 309.59 108.859V40.8634ZM406.748 32.4354C407.51 31.0069 408.795 30.007 410.605 29.4356C412.414 28.8642 414.795 28.5785 417.747 28.5785C420.794 28.5785 423.223 28.8642 425.032 29.4356C426.842 30.007 428.08 31.0069 428.746 32.4354C429.508 33.8639 429.937 35.1495 430.032 36.2923C430.222 37.3398 430.318 38.9588 430.318 41.1491V126.429C430.318 128.62 430.222 130.286 430.032 131.429C429.937 132.477 429.508 133.667 428.746 135C427.318 137.572 423.271 138.857 416.604 138.857C410.033 138.857 406.367 136.524 405.605 131.858C401.605 136.429 396.034 138.714 388.892 138.714C380.321 138.714 372.512 135 365.465 127.572C358.418 120.049 354.894 111.335 354.894 101.431C354.894 91.4316 358.418 82.6703 365.465 75.1469C372.607 67.6236 380.416 63.8619 388.892 63.8619C395.939 63.8619 401.415 66.2427 405.319 71.0043V41.0063C405.319 38.8159 405.367 37.197 405.462 36.1494C405.653 35.0066 406.081 33.7686 406.748 32.4354ZM383.606 110.002C386.082 112.573 389.082 113.859 392.606 113.859C396.129 113.859 399.034 112.573 401.32 110.002C403.7 107.431 404.891 104.621 404.891 101.574C404.891 98.4312 403.748 95.5266 401.462 92.8601C399.272 90.1936 396.272 88.8603 392.463 88.8603C388.654 88.8603 385.606 90.1936 383.321 92.8601C381.035 95.4314 379.892 98.2883 379.892 101.431C379.892 104.574 381.13 107.431 383.606 110.002ZM439.554 101.431C439.554 90.0031 443.553 80.5752 451.553 73.1471C459.552 65.719 468.695 62.0049 478.98 62.0049C489.265 62.0049 498.359 65.719 506.264 73.1471C514.168 80.4799 518.12 89.8603 518.12 101.288C518.12 109.192 516.073 116.24 511.978 122.43C507.883 128.524 502.883 133.048 496.979 136C491.169 138.857 485.122 140.286 478.837 140.286C472.552 140.286 466.457 138.762 460.552 135.714C454.648 132.572 449.648 128.001 445.553 122.001C441.554 115.906 439.554 109.05 439.554 101.431ZM469.409 111.716C472.456 114.002 475.551 115.144 478.694 115.144C481.837 115.144 484.979 113.954 488.122 111.573C491.265 109.192 492.836 105.669 492.836 101.002C492.836 96.3361 491.36 92.8601 488.408 90.5745C485.456 88.289 482.265 87.1462 478.837 87.1462C475.409 87.1462 472.218 88.3366 469.266 90.7174C466.314 93.0982 464.838 96.6218 464.838 101.288C464.838 105.859 466.362 109.335 469.409 111.716ZM578.489 64.5762C580.298 65.1476 581.775 66.1475 582.917 67.576C584.155 68.9092 584.774 71.0996 584.774 74.147C584.774 77.1944 583.87 80.5275 582.06 84.1464C580.251 87.7652 577.632 89.5746 574.204 89.5746C572.489 89.5746 570.823 89.1937 569.204 88.4318C567.68 87.6699 565.633 87.289 563.061 87.289C560.49 87.289 558.062 88.1937 555.776 90.0031C553.586 91.8125 552.491 94.0029 552.491 96.5741V126.572C552.491 128.763 552.395 130.429 552.205 131.572C552.11 132.619 551.681 133.857 550.919 135.286C549.491 137.762 545.777 139 539.777 139C535.206 139 531.921 138.191 529.921 136.572C528.397 135.238 527.54 133.191 527.349 130.429C527.349 129.477 527.349 128.096 527.349 126.287V76.1469C527.349 73.9565 527.397 72.3376 527.492 71.29C527.683 70.1473 528.111 68.9092 528.778 67.576C530.111 65.0047 533.825 63.7191 539.92 63.7191C545.634 63.7191 549.205 64.8143 550.634 67.0046C551.681 68.5283 552.205 70.0996 552.205 71.7186C552.681 71.052 553.348 70.2425 554.205 69.2902C555.157 68.3378 557.109 67.0522 560.062 65.4333C563.014 63.8143 565.585 63.0049 567.775 63.0049C570.061 63.0049 571.966 63.1477 573.489 63.4334C575.013 63.6239 576.68 64.0048 578.489 64.5762ZM637.165 71.7186C637.736 66.3856 641.498 63.7191 648.45 63.7191C652.164 63.7191 654.926 64.0048 656.735 64.5762C658.545 65.1476 659.783 66.1475 660.449 67.576C661.211 69.0045 661.64 70.2901 661.735 71.4329C661.925 72.4804 662.021 74.0994 662.021 76.2897V126.287C662.021 128.477 661.925 130.143 661.735 131.286C661.64 132.334 661.259 133.572 660.592 135C659.259 137.476 655.973 138.714 650.736 138.714C645.593 138.714 642.117 138.095 640.308 136.857C638.593 135.524 637.593 133.619 637.308 131.143C633.784 136.191 627.88 138.714 619.595 138.714C611.405 138.714 603.786 134.953 596.739 127.429C589.692 119.906 586.168 111.192 586.168 101.288C586.168 91.2888 589.692 82.575 596.739 75.1469C603.881 67.6236 611.69 63.8619 620.166 63.8619C623.404 63.8619 626.356 64.4333 629.023 65.5761C631.689 66.7189 633.546 67.8141 634.594 68.8616C635.641 69.8139 636.498 70.7663 637.165 71.7186ZM611.167 101.431C611.167 104.574 612.405 107.431 614.881 110.002C617.357 112.478 620.357 113.716 623.88 113.716C627.404 113.716 630.308 112.43 632.594 109.859C634.975 107.288 636.165 104.478 636.165 101.431C636.165 98.2883 635.022 95.3837 632.737 92.7172C630.546 90.0507 627.547 88.7175 623.737 88.7175C620.023 88.7175 616.976 90.0507 614.595 92.7172C612.309 95.3837 611.167 98.2883 611.167 101.431ZM673.977 132.286C672.168 131.143 671.263 129.334 671.263 126.858C671.263 124.382 673.073 120.62 676.691 115.573C677.739 113.954 679.406 113.145 681.691 113.145C684.072 113.145 687.262 114.335 691.262 116.716C695.262 119.001 698.881 120.144 702.118 120.144C707.928 120.144 710.832 119.001 710.832 116.716C710.832 114.906 707.642 113.573 701.261 112.716C695.262 111.859 689.31 109.621 683.405 106.002C680.644 104.288 678.358 101.621 676.549 98.0026C674.739 94.2886 673.834 89.9079 673.834 84.8606C673.834 69.8139 684.167 62.2906 704.833 62.2906C711.594 62.2906 718.546 63.9096 725.688 67.1474C729.021 68.6712 730.688 70.5758 730.688 72.8614C730.688 75.1469 729.64 77.9563 727.545 81.2894C725.45 84.6225 723.308 86.2891 721.117 86.2891C719.974 86.2891 717.832 85.5748 714.689 84.1464C711.642 82.7179 708.308 82.0036 704.69 82.0036C699.071 82.0036 696.262 83.0512 696.262 85.1463C696.262 88.0033 699.5 89.8603 705.975 90.7174C712.261 91.384 718.355 93.1934 724.26 96.1456C727.022 97.4788 729.307 99.812 731.117 103.145C733.021 106.383 733.973 110.478 733.973 115.43C733.973 120.382 733.021 124.62 731.117 128.144C729.307 131.572 726.736 134.143 723.403 135.857C717.308 138.81 709.642 140.286 700.404 140.286C691.262 140.286 682.453 137.619 673.977 132.286Z" fill="#42495B"/>
<path d="M811.72 38.1493C812.672 36.6256 814.053 35.578 815.862 35.0066C817.672 34.4353 819.91 34.1496 822.576 34.1496C825.338 34.1496 827.528 34.3876 829.147 34.8638C830.766 35.34 832.004 35.9114 832.861 36.578C833.718 37.2446 834.337 38.2445 834.718 39.5778C835.29 41.1967 835.575 43.6728 835.575 47.0059V90.146C835.575 102.717 831.671 114.144 823.862 124.43C820.052 129.286 815.148 133.238 809.148 136.286C803.149 139.238 796.483 140.714 789.15 140.714C781.912 140.714 775.293 139.19 769.294 136.143C763.389 133.096 758.58 129.096 754.866 124.144C747.152 114.049 743.295 102.621 743.295 89.8603V46.863C743.295 44.5775 743.343 42.9109 743.438 41.8634C743.629 40.7206 744.105 39.4349 744.867 38.0065C745.629 36.578 746.914 35.578 748.724 35.0066C750.533 34.4353 752.962 34.1496 756.009 34.1496C759.056 34.1496 761.485 34.4353 763.294 35.0066C765.104 35.578 766.342 36.578 767.008 38.0065C768.151 40.1968 768.722 43.1966 768.722 47.0059V89.8603C768.722 95.6694 770.151 101.193 773.008 106.431C774.436 109.097 776.579 111.24 779.436 112.859C782.293 114.478 785.674 115.287 789.578 115.287C796.53 115.287 801.72 112.716 805.149 107.573C808.577 102.431 810.291 96.4789 810.291 89.7174V46.0059C810.291 42.2919 810.767 39.673 811.72 38.1493ZM911.368 86.0034L940.081 117.573C943.319 121.192 944.938 124.239 944.938 126.715C944.938 129.191 943.081 132.096 939.367 135.429C935.748 138.762 932.653 140.428 930.082 140.428C927.605 140.428 924.701 138.524 921.368 134.715L894.227 103.574L867.086 134.715C863.657 138.524 860.705 140.428 858.229 140.428C855.848 140.428 852.753 138.762 848.944 135.429C845.23 132 843.373 129.096 843.373 126.715C843.373 124.334 845.039 121.287 848.372 117.573L877.085 86.0034L848.372 54.434C845.039 50.9104 843.373 47.9106 843.373 45.4346C843.373 42.9585 845.23 40.0539 848.944 36.7208C852.658 33.2925 855.753 31.5783 858.229 31.5783C860.8 31.5783 863.752 33.4829 867.086 37.2922L894.227 68.4331L921.368 37.2922C924.796 33.4829 927.701 31.5783 930.082 31.5783C932.558 31.5783 935.653 33.2449 939.367 36.578C943.081 39.9111 944.938 42.8633 944.938 45.4346C944.938 48.0058 943.319 51.0056 940.081 54.434L911.368 86.0034Z" fill="#0BBFB5"/>
</svg>
