<svg width="264" height="53" viewBox="0 0 264 53" fill="none" xmlns="http://www.w3.org/2000/svg">
<path fill-rule="evenodd" clip-rule="evenodd" d="M41.1899 36.3626C41.1899 33.0351 38.5035 30.3462 35.1791 30.3462H15.4675C12.143 30.3462 9.45661 33.0351 9.45661 36.3626C9.45661 39.69 12.143 42.3789 15.4675 42.3789H35.1455C38.4699 42.4125 41.1899 39.69 41.1899 36.3626Z" fill="#06D2C8"/>
<path fill-rule="evenodd" clip-rule="evenodd" d="M35.1791 29.7109C38.8549 29.7109 41.8252 32.6848 41.8252 36.3626C41.8252 40.038 38.823 43.0496 35.1424 43.0142H15.4675C11.7916 43.0142 8.82136 40.0403 8.82136 36.3626C8.82136 32.6848 11.7916 29.7109 15.4675 29.7109H35.1791ZM40.5547 36.3626C40.5547 33.3854 38.1521 30.9814 35.1791 30.9814H15.4675C12.4944 30.9814 10.0919 33.3854 10.0919 36.3626C10.0919 39.3398 12.4944 41.7437 15.4675 41.7437H35.1487L35.1519 41.7437C38.1187 41.7737 40.5547 39.341 40.5547 36.3626Z" fill="#42495B"/>
<path d="M45.3587 36.6403C45.5511 32.9696 42.7431 29.8481 39.0757 29.6559L27.5884 29.7087C23.921 29.5165 23.2254 42.7902 26.8927 42.9824L38.343 42.9277C42.0084 43.157 45.1663 40.311 45.3587 36.6403Z" fill="white"/>
<path fill-rule="evenodd" clip-rule="evenodd" d="M27.5212 31.2319C27.5023 31.2409 27.4648 31.2646 27.4056 31.3209C27.2469 31.4718 27.0341 31.7718 26.8179 32.2758C26.3876 33.2785 26.0936 34.7341 26.0126 36.2812C25.9315 37.8283 26.0717 39.3067 26.3948 40.3489C26.5572 40.8727 26.7374 41.1933 26.8795 41.3599C26.928 41.4168 26.9612 41.4447 26.9802 41.4574L38.387 41.4029L38.4382 41.4061C41.2469 41.5818 43.6877 39.3947 43.8362 36.5605C43.9839 33.743 41.8418 31.3495 39.0365 31.1807L27.5519 31.2335L27.5212 31.2319ZM39.0757 29.6559C42.7431 29.8481 45.5511 32.9696 45.3587 36.6403C45.1663 40.311 42.0084 43.157 38.343 42.9277L26.8927 42.9824C23.2254 42.7902 23.921 29.5165 27.5884 29.7087L39.0757 29.6559ZM26.9994 41.4668C26.9995 41.4676 26.9955 41.4667 26.9873 41.4619C26.9953 41.4636 26.9994 41.4661 26.9994 41.4668ZM27.5235 31.2308C27.5321 31.2269 27.5362 31.2264 27.5361 31.2272C27.5359 31.2279 27.5316 31.2299 27.5235 31.2308Z" fill="#42495B"/>
<path fill-rule="evenodd" clip-rule="evenodd" d="M22.0951 33.8253H15.5133C14.0694 33.8253 12.9277 35.0017 12.9277 36.4134C12.9277 36.8839 12.5583 37.2536 12.0882 37.2536C11.618 37.2536 11.2486 36.8839 11.2486 36.4134C11.2486 34.0606 13.1627 32.1448 15.5133 32.1448H22.0951C22.5652 32.1448 22.9346 32.5145 22.9346 32.9851C22.9346 33.4556 22.5652 33.8253 22.0951 33.8253Z" fill="white"/>
<path fill-rule="evenodd" clip-rule="evenodd" d="M23.6333 13.9681C20.5968 12.215 16.7481 13.2145 15.0219 16.2044L4.78644 33.9327C3.06019 36.9226 4.11899 40.7554 7.1555 42.5086C10.192 44.2617 14.0407 43.2622 15.7669 40.2723L25.9849 22.5742C27.7419 19.602 26.6698 15.7213 23.6333 13.9681Z" fill="#06D2C8"/>
<path fill-rule="evenodd" clip-rule="evenodd" d="M14.4723 15.8866C16.3786 12.5849 20.6192 11.4939 23.9515 13.4178C27.2816 15.3405 28.4751 19.6071 26.5341 22.8944L16.3177 40.5898C14.4114 43.8915 10.1708 44.9825 6.83845 43.0586C3.50615 41.1347 2.3306 36.9167 4.23688 33.6149L14.4723 15.8866ZM23.3163 14.5181C20.5756 12.9358 17.1188 13.8438 15.5726 16.5219L5.33717 34.2502C3.79095 36.9283 4.73299 40.3759 7.47371 41.9583C10.2144 43.5406 13.6712 42.6326 15.2174 39.9545L25.437 22.2536L25.4387 22.2508C27.0091 19.5941 26.0582 16.1012 23.3163 14.5181Z" fill="#42495B"/>
<path d="M26.1179 10.3603C22.8695 8.25078 18.5661 9.13081 16.489 12.3293L10.5799 22.6937C8.50272 25.8922 20.2492 33.5205 22.3263 30.322L28.2145 19.9899C30.3244 16.8127 29.3662 12.4698 26.1179 10.3603Z" fill="white"/>
<path fill-rule="evenodd" clip-rule="evenodd" d="M11.8607 23.5206C11.8607 23.5212 11.8606 23.5218 11.8605 23.5224C11.8587 23.5373 11.8553 23.5935 11.8826 23.703C11.9413 23.9391 12.1114 24.2995 12.4637 24.7663C13.1644 25.6945 14.3499 26.7347 15.7256 27.6281C17.1013 28.5215 18.5337 29.1814 19.6667 29.444C20.2365 29.576 20.6349 29.5848 20.8744 29.5424C20.9777 29.5241 21.0281 29.5004 21.0451 29.491L26.9156 19.1898L26.9444 19.1465C28.5678 16.702 27.8512 13.3038 25.2875 11.6389C22.7386 9.98365 19.4054 10.6793 17.7903 13.1251L11.8825 23.4871L11.8607 23.5206ZM16.489 12.3293C18.5661 9.13081 22.8695 8.25078 26.1179 10.3603C29.3662 12.4698 30.3244 16.8127 28.2145 19.9899L22.3263 30.322C20.2492 33.5205 8.50271 25.8922 10.5799 22.6937L16.489 12.3293Z" fill="#42495B"/>
<path fill-rule="evenodd" clip-rule="evenodd" d="M11.3403 29.8177L7.92272 35.7372C7.17294 37.0359 7.6536 38.6825 8.94181 39.4263C9.37122 39.6742 9.5168 40.2012 9.27269 40.624C9.02857 41.0468 8.49937 41.1843 8.06997 40.9363C5.92294 39.6967 5.16855 36.9659 6.38913 34.8518L9.80675 28.9323C10.0509 28.5095 10.5801 28.372 11.0095 28.62C11.4389 28.8679 11.5845 29.3949 11.3403 29.8177Z" fill="white"/>
<path d="M225.998 13.7616C226.261 13.3414 226.641 13.0526 227.14 12.8951C227.639 12.7375 228.256 12.6588 228.992 12.6588C229.753 12.6588 230.357 12.7244 230.803 12.8557C231.25 12.987 231.591 13.1445 231.827 13.3283C232.064 13.5121 232.234 13.7878 232.339 14.1554C232.497 14.6018 232.576 15.2845 232.576 16.2035V28.098C232.576 31.5639 231.499 34.7148 229.346 37.5505C228.296 38.8896 226.943 39.9793 225.289 40.8195C223.635 41.6335 221.797 42.0405 219.775 42.0405C217.78 42.0405 215.955 41.6204 214.301 40.7801C212.673 39.9399 211.347 38.8371 210.323 37.4717C208.196 34.6885 207.132 31.5376 207.132 28.0192V16.1641C207.132 15.5339 207.146 15.0744 207.172 14.7856C207.224 14.4705 207.356 14.116 207.566 13.7222C207.776 13.3283 208.13 13.0526 208.629 12.8951C209.128 12.7375 209.798 12.6588 210.638 12.6588C211.478 12.6588 212.148 12.7375 212.646 12.8951C213.145 13.0526 213.487 13.3283 213.67 13.7222C213.986 14.3261 214.143 15.1532 214.143 16.2035V28.0192C214.143 29.6209 214.537 31.1438 215.325 32.5879C215.719 33.3231 216.309 33.9139 217.097 34.3603C217.885 34.8066 218.817 35.0298 219.893 35.0298C221.81 35.0298 223.241 34.3209 224.186 32.903C225.132 31.4851 225.604 29.844 225.604 27.9798V15.9278C225.604 14.9037 225.736 14.1817 225.998 13.7616Z" fill="#06D2C8"/>
<path d="M253.473 26.9558L261.39 35.66C262.282 36.6578 262.729 37.498 262.729 38.1807C262.729 38.8634 262.217 39.6642 261.193 40.5832C260.195 41.5022 259.342 41.9617 258.633 41.9617C257.95 41.9617 257.149 41.4366 256.23 40.3863L248.747 31.8002L241.264 40.3863C240.318 41.4366 239.504 41.9617 238.822 41.9617C238.165 41.9617 237.312 41.5022 236.262 40.5832C235.238 39.638 234.726 38.8371 234.726 38.1807C234.726 37.5243 235.185 36.684 236.104 35.66L244.021 26.9558L236.104 18.2515C235.185 17.28 234.726 16.4529 234.726 15.7702C234.726 15.0875 235.238 14.2867 236.262 13.3677C237.286 12.4224 238.139 11.9498 238.822 11.9498C239.531 11.9498 240.345 12.475 241.264 13.5252L248.747 22.1113L256.23 13.5252C257.175 12.475 257.976 11.9498 258.633 11.9498C259.315 11.9498 260.169 12.4093 261.193 13.3283C262.217 14.2473 262.729 15.0613 262.729 15.7702C262.729 16.4792 262.282 17.3063 261.39 18.2515L253.473 26.9558Z" fill="#06D2C8"/>
<path d="M74.7041 18.5284C75.3868 19.9201 75.7282 21.4692 75.7282 23.176C75.7282 24.8827 75.3868 26.4318 74.7041 27.8235C74.0215 29.1888 73.1418 30.2785 72.0653 31.0925C69.886 32.7729 67.6278 33.6132 65.291 33.6132H60.3678V38.0638C60.3678 38.6677 60.3415 39.1272 60.289 39.4423C60.2627 39.7311 60.1446 40.0724 59.9345 40.4663C59.5669 41.1752 58.5429 41.5297 56.8624 41.5297C55.0244 41.5297 53.9479 41.0439 53.6328 40.0724C53.4753 39.6261 53.3965 38.9434 53.3965 38.0244V16.1653C53.3965 15.5614 53.4096 15.115 53.4359 14.8262C53.4884 14.5111 53.6197 14.1566 53.8297 13.7628C54.1973 13.0538 55.2214 12.6994 56.9018 12.6994H65.3304C67.641 12.6994 69.886 13.5396 72.0653 15.22C73.1418 16.034 74.0215 17.1368 74.7041 18.5284ZM65.3304 26.6419C66.1181 26.6419 66.8927 26.3531 67.6541 25.7754C68.4156 25.1978 68.7963 24.3313 68.7963 23.176C68.7963 22.0206 68.4156 21.1542 67.6541 20.5765C66.8927 19.9726 66.1049 19.6706 65.291 19.6706H60.3678V26.6419H65.3304Z" fill="#42495B"/>
<path d="M77.5125 24.2788C77.5125 23.6748 77.5257 23.2285 77.5519 22.9396C77.6044 22.6246 77.7226 22.2701 77.9064 21.8762C78.274 21.1935 79.298 20.8522 80.9785 20.8522C82.2388 20.8522 83.1316 21.0754 83.6567 21.5218C84.1031 21.8894 84.3394 22.4539 84.3656 23.2153C84.3919 23.4779 84.405 23.8586 84.405 24.3575V38.1425C84.405 38.7464 84.3788 39.2059 84.3263 39.521C84.3 39.8099 84.1818 40.1512 83.9718 40.5451C83.6304 41.2277 82.6195 41.5691 80.9391 41.5691C79.2849 41.5691 78.274 41.2146 77.9064 40.5057C77.7226 40.1118 77.6044 39.7705 77.5519 39.4816C77.5257 39.1928 77.5125 38.7333 77.5125 38.1031V24.2788ZM79.9938 18.8829C79.9938 18.8829 79.6 18.9748 78.8123 19.1586C78.0245 19.1586 77.3812 18.384 76.8824 16.8349C76.6723 16.2047 76.5673 15.6664 76.5673 15.22C76.5673 14.7737 76.646 14.4323 76.8036 14.196C77.0662 13.8547 77.5519 13.579 78.2609 13.3689L84.7595 11.3603C85.4422 11.1765 85.836 11.0846 85.9411 11.0846C86.7288 11.0846 87.359 11.8591 87.8316 13.4083C88.0416 14.0385 88.1467 14.5767 88.1467 15.0231C88.1467 15.4432 88.0679 15.7714 87.9104 16.0078C87.6478 16.3491 87.162 16.6248 86.4531 16.8349L79.9938 18.8829Z" fill="#42495B"/>
<path d="M87.5513 14.5111C87.5513 13.9072 87.5644 13.4608 87.5907 13.172C87.6432 12.8569 87.7613 12.5024 87.9451 12.1086C88.3127 11.3996 89.3367 11.0452 91.0172 11.0452C92.6189 11.0452 93.6167 11.3996 94.0105 12.1086C94.2206 12.5024 94.3387 12.8569 94.365 13.172C94.4175 13.4871 94.4438 13.9466 94.4438 14.5505V32.7861C94.4438 33.7313 94.5225 34.3352 94.6801 34.5978C94.8376 34.8341 95.179 34.9523 95.7041 34.9523C96.2555 34.9523 96.6231 34.9785 96.8069 35.0311C96.9907 35.0573 97.2139 35.1623 97.4765 35.3461C98.0016 35.6875 98.2642 36.6196 98.2642 38.1425C98.2642 39.7967 98.0016 40.8076 97.4765 41.1752C96.7938 41.6479 95.1658 41.7266 92.5926 41.4115C90.5708 41.149 89.258 40.4794 88.6541 39.4029C87.9189 38.1163 87.5513 36.0682 87.5513 33.2587V14.5111Z" fill="#42495B"/>
<path d="M114.339 12.1874C114.549 11.7935 114.904 11.5178 115.403 11.3603C115.902 11.2027 116.558 11.1239 117.372 11.1239C118.212 11.1239 118.882 11.2027 119.381 11.3603C119.88 11.5178 120.221 11.7935 120.405 12.1874C120.615 12.5812 120.733 12.9357 120.759 13.2508C120.812 13.5396 120.838 13.986 120.838 14.5899V38.1031C120.838 38.7071 120.812 39.1666 120.759 39.4816C120.733 39.7705 120.615 40.0987 120.405 40.4663C120.011 41.1752 118.895 41.5297 117.057 41.5297C115.245 41.5297 114.234 40.8864 114.024 39.5998C112.921 40.8601 111.385 41.4903 109.416 41.4903C107.053 41.4903 104.9 40.4663 102.957 38.4182C101.014 36.3439 100.042 33.9414 100.042 31.2106C100.042 28.4536 101.014 26.038 102.957 23.9637C104.926 21.8894 107.079 20.8522 109.416 20.8522C111.359 20.8522 112.869 21.5086 113.946 22.8215V14.5505C113.946 13.9466 113.959 13.5002 113.985 13.2114C114.037 12.8963 114.156 12.555 114.339 12.1874ZM107.959 33.5738C108.642 34.2827 109.469 34.6372 110.44 34.6372C111.412 34.6372 112.213 34.2827 112.843 33.5738C113.499 32.8648 113.827 32.0903 113.827 31.25C113.827 30.3835 113.512 29.5827 112.882 28.8475C112.278 28.1123 111.451 27.7447 110.401 27.7447C109.351 27.7447 108.51 28.1123 107.88 28.8475C107.25 29.5564 106.935 30.3442 106.935 31.2106C106.935 32.0771 107.276 32.8648 107.959 33.5738Z" fill="#42495B"/>
<path d="M123.385 31.2106C123.385 28.0598 124.487 25.4603 126.693 23.4123C128.899 21.3642 131.419 20.3402 134.255 20.3402C137.091 20.3402 139.598 21.3642 141.778 23.4123C143.957 25.4341 145.047 28.0204 145.047 31.1713C145.047 33.3506 144.482 35.2936 143.353 37.0003C142.224 38.6808 140.846 39.928 139.218 40.742C137.616 41.5297 135.949 41.9236 134.216 41.9236C132.483 41.9236 130.802 41.5034 129.174 40.6632C127.546 39.7967 126.168 38.5364 125.039 36.8822C123.936 35.2017 123.385 33.3112 123.385 31.2106ZM131.616 34.0464C132.456 34.6766 133.31 34.9917 134.176 34.9917C135.043 34.9917 135.909 34.6635 136.776 34.007C137.642 33.3506 138.075 32.3791 138.075 31.0925C138.075 29.8059 137.668 28.8475 136.854 28.2173C136.04 27.5872 135.161 27.2721 134.216 27.2721C133.27 27.2721 132.391 27.6003 131.577 28.2567C130.763 28.9131 130.356 29.8847 130.356 31.1713C130.356 32.4316 130.776 33.39 131.616 34.0464Z" fill="#42495B"/>
<path d="M161.691 21.0491C162.19 21.2067 162.597 21.4824 162.912 21.8762C163.254 22.2438 163.424 22.8477 163.424 23.688C163.424 24.5282 163.175 25.4472 162.676 26.445C162.177 27.4427 161.455 27.9416 160.51 27.9416C160.037 27.9416 159.578 27.8366 159.131 27.6265C158.711 27.4165 158.147 27.3115 157.438 27.3115C156.729 27.3115 156.059 27.5609 155.429 28.0598C154.825 28.5587 154.523 29.1626 154.523 29.8715V38.1425C154.523 38.7464 154.497 39.2059 154.444 39.521C154.418 39.8099 154.3 40.1512 154.09 40.5451C153.696 41.2277 152.672 41.5691 151.018 41.5691C149.758 41.5691 148.852 41.3459 148.3 40.8995C147.88 40.5319 147.644 39.9674 147.591 39.2059C147.591 38.9434 147.591 38.5626 147.591 38.0638V24.2394C147.591 23.6355 147.605 23.1891 147.631 22.9003C147.683 22.5852 147.801 22.2438 147.985 21.8762C148.353 21.1673 149.377 20.8128 151.057 20.8128C152.633 20.8128 153.617 21.1148 154.011 21.7187C154.3 22.1388 154.444 22.572 154.444 23.0184C154.576 22.8346 154.76 22.6114 154.996 22.3489C155.258 22.0863 155.797 21.7318 156.611 21.2854C157.425 20.8391 158.134 20.6159 158.738 20.6159C159.368 20.6159 159.893 20.6553 160.313 20.734C160.733 20.7866 161.193 20.8916 161.691 21.0491Z" fill="#42495B"/>
<path d="M177.869 23.0184C178.027 21.548 179.064 20.8128 180.981 20.8128C182.005 20.8128 182.766 20.8916 183.265 21.0491C183.764 21.2067 184.105 21.4824 184.289 21.8762C184.499 22.2701 184.618 22.6246 184.644 22.9396C184.696 23.2285 184.723 23.6748 184.723 24.2788V38.0638C184.723 38.6677 184.696 39.1272 184.644 39.4423C184.618 39.7311 184.512 40.0724 184.329 40.4663C183.961 41.149 183.055 41.4903 181.611 41.4903C180.193 41.4903 179.235 41.3196 178.736 40.9783C178.263 40.6107 177.988 40.0856 177.909 39.4029C176.937 40.7945 175.309 41.4903 173.025 41.4903C170.767 41.4903 168.666 40.4532 166.723 38.3788C164.78 36.3045 163.809 33.902 163.809 31.1713C163.809 28.4143 164.78 26.0117 166.723 23.9637C168.693 21.8894 170.846 20.8522 173.183 20.8522C174.075 20.8522 174.889 21.0097 175.624 21.3248C176.36 21.6399 176.872 21.9419 177.16 22.2307C177.449 22.4933 177.686 22.7558 177.869 23.0184ZM170.701 31.2106C170.701 32.0771 171.043 32.8648 171.725 33.5738C172.408 34.2565 173.235 34.5978 174.207 34.5978C175.178 34.5978 175.979 34.2433 176.609 33.5344C177.266 32.8255 177.594 32.0509 177.594 31.2106C177.594 30.3442 177.279 29.5433 176.648 28.8081C176.045 28.0729 175.217 27.7053 174.167 27.7053C173.143 27.7053 172.303 28.0729 171.646 28.8081C171.016 29.5433 170.701 30.3442 170.701 31.2106Z" fill="#42495B"/>
<path d="M188.019 39.718C187.52 39.4029 187.271 38.904 187.271 38.2213C187.271 37.5386 187.77 36.5015 188.768 35.1098C189.056 34.6635 189.516 34.4403 190.146 34.4403C190.802 34.4403 191.682 34.7685 192.785 35.4249C193.888 36.0551 194.885 36.3702 195.778 36.3702C197.38 36.3702 198.181 36.0551 198.181 35.4249C198.181 34.926 197.301 34.5584 195.542 34.3221C193.888 34.0858 192.247 33.4688 190.619 32.471C189.857 31.9984 189.227 31.2632 188.728 30.2654C188.229 29.2414 187.98 28.0335 187.98 26.6419C187.98 22.4933 190.829 20.419 196.527 20.419C198.391 20.419 200.308 20.8653 202.277 21.7581C203.196 22.1782 203.655 22.7033 203.655 23.3335C203.655 23.9637 203.367 24.7383 202.789 25.6573C202.211 26.5763 201.62 27.0358 201.017 27.0358C200.701 27.0358 200.111 26.8388 199.244 26.445C198.404 26.0511 197.485 25.8542 196.487 25.8542C194.938 25.8542 194.163 26.143 194.163 26.7207C194.163 27.5084 195.056 28.0204 196.842 28.2567C198.575 28.4405 200.255 28.9394 201.883 29.7534C202.644 30.121 203.275 30.7643 203.774 31.6833C204.299 32.576 204.561 33.7051 204.561 35.0704C204.561 36.4358 204.299 37.6043 203.774 38.5758C203.275 39.521 202.566 40.23 201.647 40.7026C199.966 41.5166 197.853 41.9236 195.306 41.9236C192.785 41.9236 190.356 41.1884 188.019 39.718Z" fill="#42495B"/>
</svg>
